<?xml version="1.0" encoding="utf-8"?>
<!-- Generator: Adobe Illustrator 23.0.0, SVG Export Plug-In . SVG Version: 6.00 Build 0)  -->
<svg version="1.1" id="Layer_1" xmlns="http://www.w3.org/2000/svg" xmlns:xlink="http://www.w3.org/1999/xlink" x="0px" y="0px"
	 viewBox="0 0 7.67 7.75" style="enable-background:new 0 0 7.67 7.75;" xml:space="preserve">
<style type="text/css">
	.st0{fill:#FFFFFF;}
	.st1{fill:#002377;}
	.st2{fill:#C2121F;}
</style>
<path class="st0" d="M0.07,4.66c0.04,0.19,0.09,0.37,0.15,0.55h0.32L0.29,5.37C0.38,5.6,0.49,5.81,0.62,6.01L1.86,5.2h0.89L0.92,6.4
	c0.05,0.06,0.11,0.12,0.17,0.18l1.7-1.11V7.6c0.15,0.04,0.3,0.08,0.46,0.1V4.66H0.07z M4.43,7.7c0.16-0.02,0.31-0.06,0.46-0.1V5.5
	l1.68,1.1C6.74,6.42,6.9,6.23,7.04,6.02L5.78,5.2h0.89l0.6,0.39c0.03-0.07,0.07-0.14,0.09-0.21L7.09,5.2h0.35
	C7.51,5.03,7.56,4.84,7.6,4.66H4.43V7.7z M3.24,0.12c-0.16,0.02-0.31,0.06-0.46,0.1v2.17L1.06,1.27C0.9,1.44,0.75,1.62,0.62,1.82
	l1.22,0.8H0.95L0.38,2.24C0.34,2.32,0.31,2.4,0.27,2.49l0.2,0.13H0.22C0.16,2.79,0.11,2.98,0.07,3.16h3.17
	C3.24,3.16,3.24,0.12,3.24,0.12z M7.6,3.16C7.56,2.98,7.51,2.79,7.45,2.62H7.16l0.23-0.15C7.3,2.24,7.18,2.03,7.05,1.83L5.84,2.62
	H4.95l1.81-1.18C6.71,1.37,6.66,1.31,6.6,1.25L4.89,2.37V0.22c-0.15-0.04-0.3-0.08-0.46-0.1v3.04H7.6L7.6,3.16z"/>
<path class="st1" d="M0.22,5.21c0.02,0.06,0.04,0.11,0.06,0.16l0.25-0.16H0.22z M0.27,2.49C0.26,2.53,0.24,2.57,0.22,2.62h0.25
	L0.27,2.49z M6.6,1.25C6.13,0.77,5.55,0.41,4.89,0.22v2.14C4.89,2.37,6.6,1.25,6.6,1.25z M2.78,0.22C2.11,0.41,1.52,0.78,1.06,1.27
	l1.72,1.12V0.22z M1.08,6.58c0.46,0.47,1.04,0.83,1.7,1.02V5.48C2.78,5.48,1.08,6.58,1.08,6.58z M7.45,2.62
	c-0.02-0.05-0.04-0.1-0.06-0.15L7.16,2.62H7.45L7.45,2.62z M4.89,7.6c0.65-0.18,1.22-0.53,1.68-1L4.89,5.5V7.6z M7.37,5.39
	C7.4,5.33,7.42,5.27,7.45,5.2H7.09L7.37,5.39z"/>
<path class="st2" d="M4.43,7.7V4.66H7.6c0.05-0.24,0.07-0.49,0.07-0.75S7.64,3.41,7.6,3.17H4.43V0.12C4.24,0.09,4.05,0.08,3.86,0.08
	H3.81c-0.19,0-0.38,0.02-0.57,0.05v3.04H0.07C0.02,3.41,0,3.66,0,3.91s0.02,0.5,0.07,0.75h3.17V7.7c0.19,0.03,0.38,0.04,0.57,0.05
	h0.05C4.05,7.74,4.24,7.73,4.43,7.7L4.43,7.7z"/>
<path class="st2" d="M5.78,5.2l1.25,0.82C7.13,5.89,7.21,5.75,7.28,5.6L6.68,5.2H5.78z M5.84,2.62l1.21-0.79
	C6.96,1.69,6.87,1.56,6.76,1.43L4.95,2.62H5.84z M1.84,2.62l-1.22-0.8C0.53,1.96,0.45,2.1,0.38,2.24l0.57,0.37H1.84z M1.86,5.2
	l-1.24,0.8C0.72,6.15,0.81,6.28,0.92,6.4l1.83-1.2L1.86,5.2L1.86,5.2z"/>
</svg>
