<?xml version="1.0" encoding="utf-8"?>
<!-- Generator: Adobe Illustrator 23.0.0, SVG Export Plug-In . SVG Version: 6.00 Build 0)  -->
<svg version="1.1" id="Layer_1" xmlns="http://www.w3.org/2000/svg" xmlns:xlink="http://www.w3.org/1999/xlink" x="0px" y="0px"
	 viewBox="0 0 341.15 134.89" style="enable-background:new 0 0 341.15 134.89;" xml:space="preserve">
<style type="text/css">
	.st0{fill:#123453;}
	.st1{fill:#FFFFFF;}
</style>
<rect x="-184.27" y="513.64" class="st0" width="709.69" height="527.03"/>
<g>
	<g>
		<path class="st0" d="M304.52,0H242.9c-20.23,0-36.63,16.4-36.63,36.63v61.62c0,20.23,16.4,36.63,36.63,36.63h61.62
			c20.23,0,36.63-16.4,36.63-36.63V36.63C341.15,16.4,324.75,0,304.52,0z M247.91,110.51c-9.51,0-17.23-7.71-17.23-17.23l0,0h86.14
			v0c0,9.51-7.71,17.23-17.23,17.23H247.91z M316.82,50.22c0,14.27-11.57,25.84-25.84,25.84h-60.3V58.83h60.3
			c4.76,0,8.61-3.86,8.61-8.61l0,0c0-4.76-3.86-8.61-8.61-8.61h-60.3l0,0c0-9.51,7.71-17.23,17.23-17.23h43.07
			C305.25,24.37,316.82,35.94,316.82,50.22L316.82,50.22z"/>
	</g>
	<g>
		<g>
			<path class="st0" d="M22.23,88.95C10.02,88.91,0.28,99.01,0.01,111.21c-0.36,15.93,9.04,23.68,21.24,23.68
				c10.25,0,18.46-5.17,20.67-15.34h-7.81c-1.82,0-3.53,1-4.32,2.65c-1.45,3.04-4.46,4.74-8.3,4.74c-5.25,0-9.35-2.87-10.09-12.06
				h31.01c0.16-1.48,0.16-2.79,0.16-3.86C42.58,99.14,35.55,88.99,22.23,88.95z M11.73,107.49c0.98-7.22,4.68-10.58,9.93-10.58
				c5.41,0,8.53,3.69,9.27,10.58H11.73z"/>
			<path class="st0" d="M51.68,83.61c-0.16,1.48-0.16,3.53-0.16,5v1.8h-4.68v7.47h4.68v35.85h11.32V97.89h8.94v-7.47h-8.94v-2.13
				c0-1.15,0-2.63,0.16-3.77c0.41-3.69,4.18-5.17,9.52-4.18v-4.85c0-1.81-1.37-3.36-3.17-3.52c-0.6-0.05-1.21-0.08-1.83-0.08
				C57.18,71.88,52.34,76.23,51.68,83.61z"/>
			<path class="st0" d="M113.7,108.55c0-2.38-0.08-4.68-0.25-6.73c-0.66-7.55-5.25-12.88-17.47-12.88
				c-10.42,0-18.38,5.58-18.7,15.42l7.19-0.05c1.96-0.01,3.74-1.23,4.4-3.07c1.02-2.82,3.27-4.34,6.7-4.34
				c4.43,0,6.4,2.22,6.73,5.25c0.16,1.48,0.16,2.79,0.16,4.1v0.9h-2.79c-15.83,0-24.04,5.41-24.04,15.01
				c0,8.29,6.48,12.72,14.03,12.72c4.1,0,7.79-0.82,10.83-2.87l2.13-4.68l0.36,2.8c0.26,2.06,2.01,3.6,4.09,3.6h7.45
				c-0.66-4.84-0.82-7.79-0.82-11.07V108.55z M102.46,117.66c0,6.07-3.86,9.27-8.45,9.27c-4.02,0-6.64-1.8-6.64-5.66
				c0-5.74,6.07-7.79,15.09-7.14V117.66z"/>
			<path class="st0" d="M153.66,73.44v22.48l-2.87-4.51c-2.21-1.56-6.65-2.46-10.25-2.46c-11.24,0-20.92,7.96-20.92,23.79
				c0,12.88,7.22,22.15,19.44,22.15c4.43,0,8.86-1.15,11.32-3.04l3.28-4.84v6.73h5.96c2.96,0,5.36-2.4,5.36-5.36V78.8
				c0-2.96-2.4-5.36-5.36-5.36H153.66z M153.66,112.41c0,10.66-5.09,14.52-11.32,14.52c-6.73,0-10.99-5.99-10.99-14.93
				c0-10.09,4.84-15.1,11.4-15.1c5.25,0,10.91,3.53,10.91,13.37V112.41z"/>
		</g>
		<g>
			<path class="st0" d="M156.75,53.31c-1.93,0.23-3.09,1.58-3.09,3.92c0,1.06,0.21,1.87,0.77,2.65l1.31,0.85h-2.07v2.86h11.32v-2.86
				h-4.22c-3.07,0-4.27-1.1-4.27-2.49c0-1.39,0.79-2.03,1.95-2.12c0.56-0.04,1.08-0.04,1.53-0.04h5v-2.86h-6.22
				C157.87,53.23,157.31,53.25,156.75,53.31z"/>
			<path class="st0" d="M153.66,8.65v39.92h11.32V3.3h-5.97C156.05,3.3,153.66,5.7,153.66,8.65z"/>
			<path class="st0" d="M19.93,18.8C8.12,18.8,0.82,26.02,0,35.7l8.87,0c1.29,0,2.4-0.87,2.76-2.11c1.39-4.8,4.43-6.83,8.55-6.83
				c5.74,0,9.84,4.68,9.84,14.6c0,10.83-4.1,12.8-9.76,12.8H5.36C2.4,54.16,0,56.56,0,59.52l0,4.08h20.92
				c11.9,0,20.84-6.4,20.84-21.49C41.76,27.17,31.91,18.8,19.93,18.8z"/>
			<path class="st0" d="M121.95,11.98c3.69,0,6.23-2.38,6.23-5.99c0-3.53-2.54-5.99-6.23-5.99s-6.23,2.46-6.23,5.99
				C115.72,9.6,118.26,11.98,121.95,11.98z"/>
			<path class="st0" d="M121.95,17.66c-14.52,0-22.64,9.68-22.64,22.97c0,5.17,1.25,9.8,3.63,13.54H64.83v0.03
				c-3.88,0-4.84-0.49-5.09-2.71c-0.08-1.15-0.08-2.3-0.08-4.02V3.3H53.7c-2.96,0-5.36,2.4-5.36,5.36V49.2c0,2.87,0,4.92,0.16,6.89
				c0.25,5.66,3.77,7.5,9.35,7.5c2.54,0,4.76,0,6.97,0h57.12c14.52,0,22.64-9.76,22.64-22.97
				C144.59,27.34,136.47,17.66,121.95,17.66z M121.95,55.64c-6.81,0-10.91-5.66-10.91-15.01c0-9.43,4.1-15.01,10.91-15.01
				c6.81,0,10.91,5.58,10.91,15.01C132.86,49.98,128.76,55.64,121.95,55.64z"/>
		</g>
	</g>
</g>
<rect x="-1212.84" y="513.64" class="st0" width="709.69" height="527.03"/>
<rect x="-2554.73" y="513.64" class="st0" width="709.69" height="527.03"/>
<g>
	<g>
		<path class="st1" d="M-2240.73,770.57c-15.04,0-27.23-12.19-27.23-27.23l0,0h136.15l0,0c0,15.04-12.19,27.23-27.23,27.23H-2240.73
			z"/>
		<path class="st1" d="M-2131.81,675.26c0,22.56-18.29,40.85-40.85,40.85h-95.31v-27.23h95.31c7.52,0,13.62-6.1,13.62-13.62l0,0
			c0-7.52-6.1-13.62-13.62-13.62h-95.31l0,0c0-15.04,12.19-27.23,27.23-27.23h68.08C-2150.1,634.41-2131.81,652.7-2131.81,675.26
			L-2131.81,675.26z"/>
	</g>
	<g>
		<g>
			<path class="st1" d="M-2405.81,841.02c-16.1-0.05-28.94,13.27-29.3,29.36c-0.47,21.01,11.92,31.22,28.01,31.22
				c13.52,0,24.34-6.82,27.26-20.23h-10.3c-2.4,0-4.66,1.32-5.7,3.49c-1.91,4-5.89,6.25-10.95,6.25c-6.92,0-12.33-3.79-13.31-15.9
				h40.9c0.22-1.95,0.22-3.68,0.22-5.09C-2378.97,854.46-2388.24,841.07-2405.81,841.02z M-2419.65,865.47
				c1.3-9.52,6.17-13.96,13.09-13.96c7.14,0,11.25,4.87,12.23,13.96H-2419.65z"/>
			<path class="st1" d="M-2366.96,833.98c-0.22,1.95-0.22,4.65-0.22,6.6v2.38h-6.17v9.85h6.17v47.28h14.93v-47.28h11.79v-9.85
				h-11.79v-2.81c0-1.51,0-3.46,0.22-4.98c0.54-4.87,5.52-6.82,12.55-5.52v-6.4c0-2.39-1.8-4.43-4.18-4.64
				c-0.79-0.07-1.6-0.11-2.42-0.11C-2359.71,818.51-2366.09,824.25-2366.96,833.98z"/>
			<path class="st1" d="M-2285.17,866.88c0-3.14-0.11-6.17-0.32-8.87c-0.87-9.95-6.92-16.99-23.04-16.99
				c-13.74,0-24.24,7.36-24.67,20.34l9.48-0.07c2.59-0.02,4.93-1.62,5.81-4.05c1.35-3.72,4.31-5.73,8.84-5.73
				c5.84,0,8.44,2.92,8.87,6.92c0.22,1.95,0.22,3.68,0.22,5.41v1.19h-3.68c-20.88,0-31.7,7.14-31.7,19.8
				c0,10.93,8.55,16.77,18.5,16.77c5.41,0,10.28-1.08,14.28-3.79l2.81-6.17l0.47,3.7c0.35,2.71,2.66,4.74,5.39,4.74h9.83
				c-0.87-6.38-1.08-10.28-1.08-14.61V866.88z M-2299.99,878.88c0,8.01-5.08,12.23-11.14,12.23c-5.3,0-8.76-2.38-8.76-7.47
				c0-7.57,8.01-10.28,19.91-9.41V878.88z"/>
			<path class="st1" d="M-2232.48,820.57v29.64l-3.79-5.95c-2.92-2.06-8.76-3.25-13.52-3.25c-14.82,0-27.59,10.49-27.59,31.38
				c0,16.99,9.52,29.21,25.64,29.21c5.84,0,11.68-1.51,14.93-4l4.33-6.38v8.87h7.87c3.9,0,7.06-3.16,7.06-7.06v-65.4
				c0-3.9-3.16-7.06-7.06-7.06H-2232.48z M-2232.48,871.96c0,14.06-6.71,19.15-14.93,19.15c-8.87,0-14.5-7.9-14.5-19.69
				c0-13.31,6.38-19.91,15.04-19.91c6.92,0,14.39,4.65,14.39,17.64V871.96z"/>
		</g>
		<g>
			<path class="st1" d="M-1975.5,886.53c-2.54,0.3-4.07,2.08-4.07,5.17c0,1.39,0.27,2.46,1.01,3.5l1.72,1.12h-2.73v3.77h14.93v-3.77
				h-5.56c-4.05,0-5.63-1.45-5.63-3.28c0-1.83,1.04-2.68,2.57-2.79c0.74-0.05,1.42-0.05,2.02-0.05h6.6v-3.77h-8.2
				C-1974.03,886.42-1974.77,886.45-1975.5,886.53z"/>
			<path class="st1" d="M-1979.58,827.63v52.65h14.93v-59.71h-7.87C-1976.42,820.57-1979.58,823.73-1979.58,827.63z"/>
			<path class="st1" d="M-2155.93,841.02c-15.58,0-25.21,9.52-26.29,22.29h11.7c1.7,0,3.16-1.15,3.64-2.78
				c1.84-6.33,5.84-9.01,11.27-9.01c7.57,0,12.98,6.17,12.98,19.26c0,14.28-5.41,16.88-12.88,16.88h-19.66
				c-3.9,0-7.06,3.16-7.06,7.06v5.38h27.59c15.69,0,27.48-8.44,27.48-28.35C-2127.16,852.05-2140.14,841.02-2155.93,841.02z"/>
			<path class="st1" d="M-2021.39,832.02c4.87,0,8.22-3.14,8.22-7.9c0-4.65-3.35-7.9-8.22-7.9s-8.22,3.25-8.22,7.9
				C-2029.62,828.88-2026.26,832.02-2021.39,832.02z"/>
			<path class="st1" d="M-2021.39,839.5c-19.15,0-29.86,12.77-29.86,30.29c0,6.81,1.65,12.93,4.79,17.85h-50.26v0.04
				c-5.12,0-6.38-0.65-6.71-3.57c-0.11-1.51-0.11-3.03-0.11-5.3v-58.25h-7.87c-3.9,0-7.06,3.16-7.06,7.06v53.47
				c0,3.79,0,6.49,0.22,9.09c0.32,7.47,4.98,9.9,12.33,9.9c3.35,0,6.28,0,9.2,0h75.33c19.15,0,29.86-12.88,29.86-30.29
				C-1991.53,852.27-2002.24,839.5-2021.39,839.5z M-2021.39,889.6c-8.98,0-14.39-7.47-14.39-19.8c0-12.44,5.41-19.8,14.39-19.8
				s14.39,7.36,14.39,19.8C-2007,882.13-2012.41,889.6-2021.39,889.6z"/>
		</g>
	</g>
</g>
<g>
	<g>
		<path class="st0" d="M-2158.85-97.06h-82.08c-26.95,0-48.79,21.85-48.79,48.79v82.08c0,26.95,21.85,48.79,48.79,48.79h82.08
			c26.95,0,48.8-21.85,48.8-48.8v-82.08C-2110.05-75.21-2131.9-97.06-2158.85-97.06z M-2234.25,50.15
			c-12.67,0-22.95-10.27-22.95-22.95l0,0h114.74v0c0,12.67-10.27,22.95-22.95,22.95H-2234.25z M-2142.46-30.17
			c0,19.01-15.41,34.42-34.42,34.42h-80.32V-18.7h80.32c6.34,0,11.47-5.14,11.47-11.47l0,0c0-6.34-5.14-11.47-11.47-11.47h-80.32
			l0,0c0-12.67,10.27-22.95,22.95-22.95h57.37C-2157.87-64.59-2142.46-49.18-2142.46-30.17L-2142.46-30.17z"/>
	</g>
	<g>
		<g>
			<path class="st0" d="M-2405.81,153.06c-16.1-0.05-28.94,13.27-29.3,29.36c-0.47,21.01,11.92,31.22,28.01,31.22
				c13.52,0,24.34-6.82,27.26-20.23h-10.3c-2.4,0-4.66,1.32-5.7,3.49c-1.91,4-5.89,6.25-10.95,6.25c-6.92,0-12.33-3.79-13.31-15.9
				h40.9c0.22-1.95,0.22-3.68,0.22-5.09C-2378.97,166.51-2388.24,153.11-2405.81,153.06z M-2419.65,177.51
				c1.3-9.52,6.17-13.96,13.09-13.96c7.14,0,11.25,4.87,12.23,13.96H-2419.65z"/>
			<path class="st0" d="M-2366.96,146.03c-0.22,1.95-0.22,4.65-0.22,6.6v2.38h-6.17v9.85h6.17v47.28h14.93v-47.28h11.79v-9.85
				h-11.79v-2.81c0-1.51,0-3.46,0.22-4.98c0.54-4.87,5.52-6.82,12.55-5.52v-6.4c0-2.39-1.8-4.43-4.18-4.64
				c-0.79-0.07-1.6-0.11-2.42-0.11C-2359.71,130.56-2366.09,136.29-2366.96,146.03z"/>
			<path class="st0" d="M-2285.17,178.92c0-3.14-0.11-6.17-0.32-8.87c-0.87-9.95-6.92-16.99-23.04-16.99
				c-13.74,0-24.24,7.36-24.67,20.34l9.48-0.07c2.59-0.02,4.93-1.62,5.81-4.05c1.35-3.72,4.31-5.73,8.84-5.73
				c5.84,0,8.44,2.92,8.87,6.92c0.22,1.95,0.22,3.68,0.22,5.41v1.19h-3.68c-20.88,0-31.7,7.14-31.7,19.8
				c0,10.93,8.55,16.77,18.5,16.77c5.41,0,10.28-1.08,14.28-3.79l2.81-6.17l0.47,3.7c0.35,2.71,2.66,4.74,5.39,4.74h9.83
				c-0.87-6.38-1.08-10.28-1.08-14.61V178.92z M-2299.99,190.93c0,8.01-5.08,12.23-11.14,12.23c-5.3,0-8.76-2.38-8.76-7.47
				c0-7.57,8.01-10.28,19.91-9.41V190.93z"/>
			<path class="st0" d="M-2232.48,132.61v29.64l-3.79-5.95c-2.92-2.06-8.76-3.25-13.52-3.25c-14.82,0-27.59,10.49-27.59,31.38
				c0,16.99,9.52,29.21,25.64,29.21c5.84,0,11.68-1.51,14.93-4l4.33-6.38v8.87h7.87c3.9,0,7.06-3.16,7.06-7.06v-65.4
				c0-3.9-3.16-7.06-7.06-7.06H-2232.48z M-2232.48,184c0,14.06-6.71,19.15-14.93,19.15c-8.87,0-14.5-7.9-14.5-19.69
				c0-13.31,6.38-19.91,15.04-19.91c6.92,0,14.39,4.65,14.39,17.64V184z"/>
		</g>
		<g>
			<path class="st0" d="M-1975.5,198.57c-2.54,0.3-4.07,2.08-4.07,5.17c0,1.39,0.27,2.46,1.01,3.5l1.72,1.12h-2.73v3.77h14.93v-3.77
				h-5.56c-4.05,0-5.63-1.45-5.63-3.28c0-1.83,1.04-2.68,2.57-2.79c0.74-0.05,1.42-0.05,2.02-0.05h6.6v-3.77h-8.2
				C-1974.03,198.46-1974.77,198.49-1975.5,198.57z"/>
			<path class="st0" d="M-1979.58,139.67v52.65h14.93v-59.71h-7.87C-1976.42,132.61-1979.58,135.77-1979.58,139.67z"/>
			<path class="st0" d="M-2155.93,153.06c-15.58,0-25.21,9.52-26.29,22.29l11.7,0c1.7,0,3.16-1.15,3.64-2.78
				c1.84-6.33,5.84-9.01,11.27-9.01c7.57,0,12.98,6.17,12.98,19.26c0,14.28-5.41,16.88-12.88,16.88h-19.66
				c-3.9,0-7.06,3.16-7.06,7.06v5.38h27.59c15.69,0,27.48-8.44,27.48-28.35C-2127.16,164.1-2140.14,153.06-2155.93,153.06z"/>
			<path class="st0" d="M-2021.39,144.06c4.87,0,8.22-3.14,8.22-7.9c0-4.65-3.35-7.9-8.22-7.9s-8.22,3.25-8.22,7.9
				C-2029.62,140.92-2026.26,144.06-2021.39,144.06z"/>
			<path class="st0" d="M-2021.39,151.55c-19.15,0-29.86,12.77-29.86,30.29c0,6.81,1.65,12.93,4.79,17.85h-50.26v0.04
				c-5.12,0-6.38-0.65-6.71-3.57c-0.11-1.51-0.11-3.03-0.11-5.3v-58.25h-7.87c-3.9,0-7.06,3.16-7.06,7.06v53.47
				c0,3.79,0,6.49,0.22,9.09c0.32,7.47,4.98,9.9,12.33,9.9c3.35,0,6.28,0,9.2,0h75.33c19.15,0,29.86-12.88,29.86-30.29
				C-1991.53,164.31-2002.24,151.55-2021.39,151.55z M-2021.39,201.64c-8.98,0-14.39-7.47-14.39-19.8c0-12.44,5.41-19.8,14.39-19.8
				s14.39,7.36,14.39,19.8C-2007,194.17-2012.41,201.64-2021.39,201.64z"/>
		</g>
	</g>
</g>
<rect x="-3449.59" y="513.64" class="st0" width="709.69" height="527.03"/>
<g>
	<path class="st1" d="M-3135.59,845.24c-15.04,0-27.23-12.19-27.23-27.23l0,0h136.15v0c0,15.04-12.19,27.23-27.23,27.23H-3135.59z"
		/>
	<path class="st1" d="M-3026.67,749.93c0,22.56-18.29,40.85-40.85,40.85h-95.31v-27.23h95.31c7.52,0,13.62-6.1,13.62-13.62l0,0
		c0-7.52-6.1-13.62-13.62-13.62h-95.31l0,0c0-15.04,12.19-27.23,27.23-27.23h68.08C-3044.95,709.08-3026.67,727.37-3026.67,749.93
		L-3026.67,749.93z"/>
</g>
<g>
	<g>
		<path class="st0" d="M-3053.7-22.39h-82.08c-26.95,0-48.79,21.85-48.79,48.79v82.08c0,26.95,21.85,48.79,48.79,48.79h82.08
			c26.95,0,48.8-21.85,48.8-48.8V26.41C-3004.91-0.54-3026.75-22.39-3053.7-22.39z M-3129.1,124.81
			c-12.67,0-22.95-10.27-22.95-22.95l0,0h114.74v0c0,12.67-10.27,22.95-22.95,22.95H-3129.1z M-3037.31,44.5
			c0,19.01-15.41,34.42-34.42,34.42h-80.32V55.97h80.32c6.34,0,11.47-5.14,11.47-11.47l0,0c0-6.34-5.14-11.47-11.47-11.47h-80.32
			l0,0c0-12.67,10.27-22.95,22.95-22.95h57.37C-3052.72,10.07-3037.31,25.49-3037.31,44.5L-3037.31,44.5z"/>
	</g>
</g>
<g>
	<g>
		<g>
			<path class="st1" d="M233.79,844.6c-14.9,0-26.98-12.08-26.98-26.98l0,0H341.7l0,0c0,14.9-12.08,26.98-26.98,26.98H233.79z"/>
			<path class="st1" d="M341.7,750.18c0,22.35-18.12,40.47-40.47,40.47h-94.42v-26.98h94.42c7.45,0,13.49-6.04,13.49-13.49l0,0
				c0-7.45-6.04-13.49-13.49-13.49h-94.42l0,0c0-14.9,12.08-26.98,26.98-26.98h67.44C323.58,709.71,341.7,727.83,341.7,750.18
				L341.7,750.18z"/>
		</g>
	</g>
	<g>
		<g>
			<g>
				<path class="st1" d="M21.68,798.66c-12.21-0.04-21.95,10.06-22.22,22.27C-0.89,836.85,8.5,844.6,20.7,844.6
					c10.25,0,18.46-5.17,20.67-15.34h-7.81c-1.82,0-3.53,1-4.32,2.65c-1.45,3.04-4.46,4.74-8.3,4.74c-5.25,0-9.35-2.87-10.09-12.06
					h31.01c0.16-1.48,0.16-2.79,0.16-3.86C42.03,808.86,35.01,798.7,21.68,798.66z M11.19,817.2c0.98-7.22,4.68-10.58,9.93-10.58
					c5.41,0,8.53,3.69,9.27,10.58H11.19z"/>
				<path class="st1" d="M51.14,793.33c-0.16,1.48-0.16,3.53-0.16,5v1.8H46.3v7.47h4.68v35.85H62.3V807.6h8.94v-7.47H62.3V798
					c0-1.15,0-2.63,0.16-3.77c0.41-3.69,4.18-5.17,9.52-4.18v-4.85c0-1.81-1.37-3.36-3.17-3.52c-0.6-0.05-1.21-0.08-1.83-0.08
					C56.64,781.6,51.8,785.95,51.14,793.33z"/>
				<path class="st1" d="M113.16,818.27c0-2.38-0.08-4.68-0.25-6.73c-0.66-7.55-5.25-12.88-17.47-12.88
					c-10.42,0-18.38,5.58-18.7,15.42l7.19-0.05c1.96-0.01,3.74-1.23,4.4-3.07c1.02-2.82,3.27-4.34,6.7-4.34
					c4.43,0,6.4,2.22,6.73,5.25c0.16,1.48,0.16,2.79,0.16,4.1v0.9h-2.79c-15.83,0-24.04,5.41-24.04,15.01
					c0,8.29,6.48,12.72,14.03,12.72c4.1,0,7.79-0.82,10.83-2.87l2.13-4.68l0.36,2.8c0.26,2.06,2.01,3.6,4.09,3.6h7.45
					c-0.66-4.84-0.82-7.79-0.82-11.07V818.27z M101.92,827.37c0,6.07-3.86,9.27-8.45,9.27c-4.02,0-6.64-1.8-6.64-5.66
					c0-5.74,6.07-7.79,15.09-7.14V827.37z"/>
				<path class="st1" d="M153.11,783.16v22.48l-2.87-4.51c-2.21-1.56-6.65-2.46-10.25-2.46c-11.24,0-20.92,7.96-20.92,23.79
					c0,12.88,7.22,22.15,19.44,22.15c4.43,0,8.86-1.15,11.32-3.04l3.28-4.84v6.73h5.96c2.96,0,5.36-2.4,5.36-5.36v-49.58
					c0-2.96-2.4-5.36-5.36-5.36H153.11z M153.11,822.12c0,10.66-5.09,14.52-11.32,14.52c-6.73,0-10.99-5.99-10.99-14.93
					c0-10.09,4.84-15.1,11.4-15.1c5.25,0,10.91,3.53,10.91,13.37V822.12z"/>
			</g>
			<g>
				<path class="st1" d="M156.2,763.03c-1.93,0.23-3.09,1.58-3.09,3.92c0,1.06,0.21,1.87,0.77,2.65l1.31,0.85h-2.07v2.86h11.32
					v-2.86h-4.22c-3.07,0-4.27-1.1-4.27-2.49c0-1.39,0.79-2.03,1.95-2.12c0.56-0.04,1.08-0.04,1.53-0.04h5v-2.86h-6.22
					C157.32,762.94,156.76,762.96,156.2,763.03z"/>
				<path class="st1" d="M153.11,718.37v39.92h11.32v-45.28h-5.97C155.51,713.01,153.11,715.41,153.11,718.37z"/>
				<path class="st1" d="M19.39,728.52c-11.81,0-19.11,7.22-19.93,16.9h8.87c1.29,0,2.4-0.87,2.76-2.11
					c1.39-4.8,4.43-6.83,8.55-6.83c5.74,0,9.84,4.68,9.84,14.6c0,10.83-4.1,12.8-9.76,12.8H4.81c-2.96,0-5.36,2.4-5.36,5.36v4.08
					h20.92c11.9,0,20.84-6.4,20.84-21.49C41.21,736.89,31.37,728.52,19.39,728.52z"/>
				<path class="st1" d="M121.41,721.69c3.69,0,6.23-2.38,6.23-5.99c0-3.53-2.54-5.99-6.23-5.99c-3.69,0-6.23,2.46-6.23,5.99
					C115.17,719.31,117.71,721.69,121.41,721.69z"/>
				<path class="st1" d="M121.41,727.37c-14.52,0-22.64,9.68-22.64,22.97c0,5.17,1.25,9.8,3.63,13.54H64.29v0.03
					c-3.88,0-4.84-0.49-5.09-2.71c-0.08-1.15-0.08-2.3-0.08-4.02v-44.17h-5.97c-2.96,0-5.36,2.4-5.36,5.36v40.55
					c0,2.87,0,4.92,0.16,6.89c0.25,5.66,3.77,7.5,9.35,7.5c2.54,0,4.76,0,6.97,0h57.12c14.52,0,22.64-9.76,22.64-22.97
					C144.05,737.05,135.93,727.37,121.41,727.37z M121.41,765.35c-6.81,0-10.91-5.66-10.91-15.01c0-9.43,4.1-15.01,10.91-15.01
					c6.81,0,10.91,5.58,10.91,15.01C132.32,759.69,128.22,765.35,121.41,765.35z"/>
			</g>
		</g>
	</g>
</g>
<g>
	<g>
		<path class="st0" d="M-930.32,0h-61.62c-20.23,0-36.63,16.4-36.63,36.63v61.62c0,20.23,16.4,36.63,36.63,36.63h61.62
			c20.23,0,36.63-16.4,36.63-36.63V36.63C-893.68,16.4-910.09,0-930.32,0z M-986.93,110.51c-9.51,0-17.23-7.71-17.23-17.23l0,0
			h86.14v0c0,9.51-7.71,17.23-17.23,17.23H-986.93z M-918.01,50.22c0,14.27-11.57,25.84-25.84,25.84h-60.3V58.83h60.3
			c4.76,0,8.61-3.86,8.61-8.61l0,0c0-4.76-3.86-8.61-8.61-8.61h-60.3l0,0c0-9.51,7.71-17.23,17.23-17.23h43.07
			C-929.58,24.37-918.01,35.94-918.01,50.22L-918.01,50.22z"/>
	</g>
	<g>
		<g>
			<path class="st0" d="M-830.17,88.95c-12.21-0.04-21.95,10.06-22.22,22.27c-0.36,15.93,9.04,23.68,21.24,23.68
				c10.25,0,18.46-5.17,20.67-15.34h-7.81c-1.82,0-3.53,1-4.32,2.65c-1.45,3.04-4.46,4.74-8.3,4.74c-5.25,0-9.35-2.87-10.09-12.06
				h31.01c0.16-1.48,0.16-2.79,0.16-3.86C-809.82,99.14-816.85,88.99-830.17,88.95z M-840.66,107.49
				c0.98-7.22,4.68-10.58,9.93-10.58c5.41,0,8.53,3.69,9.27,10.58H-840.66z"/>
			<path class="st0" d="M-800.71,83.61c-0.16,1.48-0.16,3.53-0.16,5v1.8h-4.68v7.47h4.68v35.85h11.32V97.89h8.94v-7.47h-8.94v-2.13
				c0-1.15,0-2.63,0.16-3.77c0.41-3.69,4.18-5.17,9.52-4.18v-4.85c0-1.81-1.37-3.36-3.17-3.52c-0.6-0.05-1.21-0.08-1.83-0.08
				C-795.22,71.88-800.06,76.23-800.71,83.61z"/>
			<path class="st0" d="M-738.69,108.55c0-2.38-0.08-4.68-0.25-6.73c-0.66-7.55-5.25-12.88-17.47-12.88
				c-10.42,0-18.38,5.58-18.7,15.42l7.19-0.05c1.96-0.01,3.74-1.23,4.4-3.07c1.02-2.82,3.27-4.34,6.7-4.34
				c4.43,0,6.4,2.22,6.73,5.25c0.16,1.48,0.16,2.79,0.16,4.1v0.9h-2.79c-15.83,0-24.04,5.41-24.04,15.01
				c0,8.29,6.48,12.72,14.03,12.72c4.1,0,7.79-0.82,10.83-2.87l2.13-4.68l0.36,2.8c0.26,2.06,2.01,3.6,4.09,3.6h7.45
				c-0.66-4.84-0.82-7.79-0.82-11.07V108.55z M-749.93,117.66c0,6.07-3.86,9.27-8.45,9.27c-4.02,0-6.64-1.8-6.64-5.66
				c0-5.74,6.07-7.79,15.09-7.14V117.66z"/>
			<path class="st0" d="M-698.74,73.44v22.48l-2.87-4.51c-2.21-1.56-6.65-2.46-10.25-2.46c-11.24,0-20.92,7.96-20.92,23.79
				c0,12.88,7.22,22.15,19.44,22.15c4.43,0,8.86-1.15,11.32-3.04l3.28-4.84v6.73h5.96c2.96,0,5.36-2.4,5.36-5.36V78.8
				c0-2.96-2.4-5.36-5.36-5.36H-698.74z M-698.74,112.41c0,10.66-5.09,14.52-11.32,14.52c-6.73,0-10.99-5.99-10.99-14.93
				c0-10.09,4.84-15.1,11.4-15.1c5.25,0,10.91,3.53,10.91,13.37V112.41z"/>
		</g>
		<g>
			<path class="st0" d="M-695.65,53.31c-1.93,0.23-3.09,1.58-3.09,3.92c0,1.06,0.21,1.87,0.77,2.65l1.31,0.85h-2.07v2.86h11.32
				v-2.86h-4.22c-3.07,0-4.27-1.1-4.27-2.49c0-1.39,0.79-2.03,1.95-2.12c0.56-0.04,1.08-0.04,1.53-0.04h5v-2.86h-6.22
				C-694.53,53.23-695.09,53.25-695.65,53.31z"/>
			<path class="st0" d="M-698.74,8.65v39.92h11.32V3.3h-5.97C-696.34,3.3-698.74,5.7-698.74,8.65z"/>
			<path class="st0" d="M-832.46,18.8c-11.81,0-19.11,7.22-19.93,16.9l8.87,0c1.29,0,2.4-0.87,2.76-2.11
				c1.39-4.8,4.43-6.83,8.55-6.83c5.74,0,9.84,4.68,9.84,14.6c0,10.83-4.1,12.8-9.76,12.8h-14.91c-2.96,0-5.36,2.4-5.36,5.36v4.08
				h20.92c11.9,0,20.84-6.4,20.84-21.49C-810.64,27.17-820.48,18.8-832.46,18.8z"/>
			<path class="st0" d="M-730.45,11.98c3.69,0,6.23-2.38,6.23-5.99c0-3.53-2.54-5.99-6.23-5.99s-6.23,2.46-6.23,5.99
				C-736.68,9.6-734.14,11.98-730.45,11.98z"/>
			<path class="st0" d="M-730.45,17.66c-14.52,0-22.64,9.68-22.64,22.97c0,5.17,1.25,9.8,3.63,13.54h-38.11v0.03
				c-3.88,0-4.84-0.49-5.09-2.71c-0.08-1.15-0.08-2.3-0.08-4.02V3.3h-5.97c-2.96,0-5.36,2.4-5.36,5.36V49.2c0,2.87,0,4.92,0.16,6.89
				c0.25,5.66,3.77,7.5,9.35,7.5c2.54,0,4.76,0,6.97,0h57.12c14.52,0,22.64-9.76,22.64-22.97
				C-707.8,27.34-715.93,17.66-730.45,17.66z M-730.45,55.64c-6.81,0-10.91-5.66-10.91-15.01c0-9.43,4.1-15.01,10.91-15.01
				s10.91,5.58,10.91,15.01C-719.54,49.98-723.64,55.64-730.45,55.64z"/>
		</g>
	</g>
</g>
<g>
	<g>
		<g>
			<path class="st1" d="M-1002.14,844.6c-14.9,0-26.98-12.08-26.98-26.98l0,0h134.89l0,0c0,14.9-12.08,26.98-26.98,26.98H-1002.14z"
				/>
			<path class="st1" d="M-894.23,750.18c0,22.35-18.12,40.47-40.47,40.47h-94.42v-26.98h94.42c7.45,0,13.49-6.04,13.49-13.49l0,0
				c0-7.45-6.04-13.49-13.49-13.49h-94.42l0,0c0-14.9,12.08-26.98,26.98-26.98h67.44C-912.34,709.71-894.23,727.83-894.23,750.18
				L-894.23,750.18z"/>
		</g>
	</g>
	<g>
		<g>
			<g>
				<path class="st1" d="M-829.62,798.66c-12.21-0.04-21.95,10.06-22.22,22.27c-0.36,15.93,9.04,23.68,21.24,23.68
					c10.25,0,18.46-5.17,20.67-15.34h-7.81c-1.82,0-3.53,1-4.32,2.65c-1.45,3.04-4.46,4.74-8.3,4.74c-5.25,0-9.35-2.87-10.09-12.06
					h31.01c0.16-1.48,0.16-2.79,0.16-3.86C-809.28,808.86-816.3,798.7-829.62,798.66z M-840.12,817.2
					c0.98-7.22,4.68-10.58,9.93-10.58c5.41,0,8.53,3.69,9.27,10.58H-840.12z"/>
				<path class="st1" d="M-800.17,793.33c-0.16,1.48-0.16,3.53-0.16,5v1.8h-4.68v7.47h4.68v35.85h11.32V807.6h8.94v-7.47h-8.94V798
					c0-1.15,0-2.63,0.16-3.77c0.41-3.69,4.18-5.17,9.52-4.18v-4.85c0-1.81-1.37-3.36-3.17-3.52c-0.6-0.05-1.21-0.08-1.83-0.08
					C-794.67,781.6-799.51,785.95-800.17,793.33z"/>
				<path class="st1" d="M-738.15,818.27c0-2.38-0.08-4.68-0.25-6.73c-0.66-7.55-5.25-12.88-17.47-12.88
					c-10.42,0-18.38,5.58-18.7,15.42l7.19-0.05c1.96-0.01,3.74-1.23,4.4-3.07c1.02-2.82,3.27-4.34,6.7-4.34
					c4.43,0,6.4,2.22,6.73,5.25c0.16,1.48,0.16,2.79,0.16,4.1v0.9h-2.79c-15.83,0-24.04,5.41-24.04,15.01
					c0,8.29,6.48,12.72,14.03,12.72c4.1,0,7.79-0.82,10.83-2.87l2.13-4.68l0.36,2.8c0.26,2.06,2.01,3.6,4.09,3.6h7.45
					c-0.66-4.84-0.82-7.79-0.82-11.07V818.27z M-749.39,827.37c0,6.07-3.86,9.27-8.45,9.27c-4.02,0-6.64-1.8-6.64-5.66
					c0-5.74,6.07-7.79,15.09-7.14V827.37z"/>
				<path class="st1" d="M-698.2,783.16v22.48l-2.87-4.51c-2.21-1.56-6.65-2.46-10.25-2.46c-11.24,0-20.92,7.96-20.92,23.79
					c0,12.88,7.22,22.15,19.44,22.15c4.43,0,8.86-1.15,11.32-3.04l3.28-4.84v6.73h5.96c2.96,0,5.36-2.4,5.36-5.36v-49.58
					c0-2.96-2.4-5.36-5.36-5.36H-698.2z M-698.2,822.12c0,10.66-5.09,14.52-11.32,14.52c-6.73,0-10.99-5.99-10.99-14.93
					c0-10.09,4.84-15.1,11.4-15.1c5.25,0,10.91,3.53,10.91,13.37V822.12z"/>
			</g>
			<g>
				<path class="st1" d="M-695.11,763.03c-1.93,0.23-3.09,1.58-3.09,3.92c0,1.06,0.21,1.87,0.77,2.65l1.31,0.85h-2.07v2.86h11.32
					v-2.86h-4.22c-3.07,0-4.27-1.1-4.27-2.49c0-1.39,0.79-2.03,1.95-2.12c0.56-0.04,1.08-0.04,1.53-0.04h5v-2.86h-6.22
					C-693.99,762.94-694.55,762.96-695.11,763.03z"/>
				<path class="st1" d="M-698.2,718.37v39.92h11.32v-45.28h-5.97C-695.8,713.01-698.2,715.41-698.2,718.37z"/>
				<path class="st1" d="M-831.92,728.52c-11.81,0-19.11,7.22-19.93,16.9h8.87c1.29,0,2.4-0.87,2.76-2.11
					c1.39-4.8,4.43-6.83,8.55-6.83c5.74,0,9.84,4.68,9.84,14.6c0,10.83-4.1,12.8-9.76,12.8h-14.91c-2.96,0-5.36,2.4-5.36,5.36v4.08
					h20.92c11.9,0,20.84-6.4,20.84-21.49C-810.1,736.89-819.94,728.52-831.92,728.52z"/>
				<path class="st1" d="M-729.9,721.69c3.69,0,6.23-2.38,6.23-5.99c0-3.53-2.54-5.99-6.23-5.99s-6.23,2.46-6.23,5.99
					C-736.14,719.31-733.59,721.69-729.9,721.69z"/>
				<path class="st1" d="M-729.9,727.37c-14.52,0-22.64,9.68-22.64,22.97c0,5.17,1.25,9.8,3.63,13.54h-38.11v0.03
					c-3.88,0-4.84-0.49-5.09-2.71c-0.08-1.15-0.08-2.3-0.08-4.02v-44.17h-5.97c-2.96,0-5.36,2.4-5.36,5.36v40.55
					c0,2.87,0,4.92,0.16,6.89c0.25,5.66,3.77,7.5,9.35,7.5c2.54,0,4.76,0,6.97,0h57.12c14.52,0,22.64-9.76,22.64-22.97
					C-707.26,737.05-715.38,727.37-729.9,727.37z M-729.9,765.35c-6.81,0-10.91-5.66-10.91-15.01c0-9.43,4.1-15.01,10.91-15.01
					c6.81,0,10.91,5.58,10.91,15.01C-718.99,759.69-723.09,765.35-729.9,765.35z"/>
			</g>
		</g>
	</g>
</g>
</svg>
