<?xml version="1.0" encoding="utf-8"?>
<!-- Generator: Adobe Illustrator 23.0.0, SVG Export Plug-In . SVG Version: 6.00 Build 0)  -->
<svg version="1.1" id="Layer_1" xmlns="http://www.w3.org/2000/svg" xmlns:xlink="http://www.w3.org/1999/xlink" x="0px" y="0px"
	 viewBox="0 0 7.7 7.8" style="enable-background:new 0 0 7.7 7.8;" xml:space="preserve">
<style type="text/css">
	.st0{clip-path:url(#SVGID_2_);fill:#006C35;}
	.st1{fill:#FFFFFF;}
	.st2{fill-rule:evenodd;clip-rule:evenodd;fill:#FFFFFF;}
</style>
<g>
	<defs>
		<circle id="SVGID_1_" cx="3.9" cy="3.9" r="3.8"/>
	</defs>
	<clipPath id="SVGID_2_">
		<use xlink:href="#SVGID_1_"  style="overflow:visible;"/>
	</clipPath>
	<path class="st0" d="M-2.2,0H9.5v7.7H-2.2V0z"/>
</g>
<path class="st1" d="M5.6,3.6c0,0,0.1,0,0.1-0.1c0,0,0-0.2-0.1-0.2c0,0,0,0,0,0c0,0,0,0,0,0.1c0,0,0,0.1,0,0.1
	C5.6,3.5,5.6,3.6,5.6,3.6L5.6,3.6z M1.9,2.5c0.1,0,0.2,0,0.2-0.1c0,0,0,0,0,0c0,0,0,0,0,0l0,0c0,0,0,0,0,0c0,0,0,0,0,0
	C2,2.5,2,2.4,1.9,2.5C2,2.4,2,2.4,2,2.4c0,0,0,0,0,0c0,0,0,0,0,0C1.9,2.4,1.9,2.4,1.9,2.5C1.9,2.4,1.9,2.4,1.9,2.5
	C1.9,2.4,1.9,2.4,1.9,2.5C1.9,2.4,1.9,2.4,1.9,2.5c0-0.1,0-0.1,0-0.1c0,0,0,0,0,0C1.8,2.4,1.8,2.4,1.9,2.5C1.8,2.4,1.8,2.5,1.9,2.5
	L1.9,2.5z M1.4,2.5C1.4,2.5,1.4,2.6,1.4,2.5C1.5,2.6,1.5,2.6,1.4,2.5c0.1,0,0.1-0.1,0-0.1c0,0,0,0,0,0C1.4,2.4,1.4,2.4,1.4,2.5
	C1.4,2.4,1.4,2.5,1.4,2.5L1.4,2.5z M3.4,2.5c0-0.1,0-0.1,0-0.2c0,0,0,0,0,0c0,0,0,0,0,0C3.4,2.4,3.4,2.5,3.4,2.5
	C3.4,2.6,3.4,2.6,3.4,2.5L3.4,2.5z M3,2.5C3.1,2.5,3.1,2.5,3,2.5C3.1,2.5,3.1,2.5,3,2.5C3.1,2.4,3.1,2.5,3,2.5
	c0-0.1,0.1-0.1,0.1-0.1c0,0,0,0,0,0c0,0,0,0,0,0C3.1,2.4,3,2.4,3,2.5C3,2.5,3,2.5,3,2.5L3,2.5z M1.4,3.1c0.2,0,0.1-0.3,0.1-0.3
	c0,0,0,0,0,0V3c0,0.1,0.1,0.1,0.1,0.1c0,0,0.1,0,0.1,0l0,0.4c0,0,0.1,0,0.1-0.2c0-0.1,0-0.3,0-0.3c0,0,0,0,0.1,0C2,3,2,3.1,2,3.1
	C2.1,3,2.2,3,2.2,2.9c0-0.1,0-0.1,0-0.2c0,0,0,0,0-0.1c0,0,0,0,0.1,0c0-0.1,0-0.1-0.1-0.1c0,0-0.1,0-0.1,0c0,0.1,0,0.2,0.1,0.2
	c0,0,0,0.1,0,0.1c0,0-0.1,0-0.1,0c0,0-0.1-0.1-0.1-0.1c0-0.1,0-0.1,0-0.2c0,0,0-0.1-0.1-0.1c0,0,0,0-0.1,0c0,0.1,0,0.2,0,0.2
	c0,0.1,0,0.1,0,0.1c0,0,0,0-0.1,0c0-0.1,0-0.2,0-0.2c0-0.1,0-0.2-0.1-0.2c0,0,0,0,0,0c0,0,0,0,0,0c0,0.1,0,0.1,0,0.2
	c0,0.1,0,0.2,0.1,0.3c0,0.1-0.1,0.1-0.1,0c0-0.1,0-0.2,0-0.2c0,0,0,0-0.1,0c0,0-0.1,0.1-0.1,0.2c0,0,0,0.1,0,0.1
	c0,0.1-0.1,0.1-0.1,0c0-0.1,0-0.3-0.1-0.2C1.2,2.8,1.2,3.1,1.4,3.1L1.4,3.1z M2.4,2.8C2.4,2.8,2.4,2.8,2.4,2.8
	C2.4,2.8,2.4,2.8,2.4,2.8C2.4,2.8,2.4,2.8,2.4,2.8L2.4,2.8c0,0,0.1,0,0.2,0c0,0,0,0,0,0c0,0,0,0,0,0c0,0,0,0,0,0
	c0,0,0.3-0.2,0.3-0.2c0,0,0,0,0,0c0,0,0,0,0,0c0.1,0,0-0.1,0-0.1c0,0,0,0-0.1,0c0,0,0,0-0.1,0c0,0,0,0.1,0,0.1c0,0,0.1,0,0,0.1
	C2.7,2.7,2.5,2.8,2.4,2.8C2.4,2.8,2.4,2.8,2.4,2.8C2.4,2.8,2.4,2.8,2.4,2.8L2.4,2.8C2.4,2.8,2.4,2.8,2.4,2.8L2.4,2.8L2.4,2.8z
	 M2.8,2.5C2.8,2.5,2.8,2.5,2.8,2.5C2.8,2.5,2.8,2.5,2.8,2.5C2.8,2.5,2.8,2.5,2.8,2.5C2.8,2.5,2.8,2.5,2.8,2.5
	C2.8,2.5,2.8,2.5,2.8,2.5L2.8,2.5z M3.1,3c0.1,0,0.1-0.1,0.1-0.2c0,0,0,0,0,0c0,0.2,0,0.2,0.1,0.3c0.1,0.1,0.2,0,0.2,0l0.1-0.1
	c0,0,0,0,0.1,0c0,0,0,0.1,0.1,0.1c0,0,0.1,0,0.2,0c0,0,0-0.1,0.1-0.1c0,0,0.1,0,0.1,0c0,0,0,0,0,0.1c0,0,0,0,0,0
	c0.1,0,0.1-0.1,0.1-0.1c0,0,0,0,0,0c0,0,0,0,0,0c0,0-0.1,0-0.1,0c0,0,0-0.1,0-0.1c0,0,0-0.1,0-0.1c0,0,0.1,0,0.1,0
	c0,0,0-0.1-0.1-0.1c0,0-0.1,0-0.1,0c0,0,0,0.1,0,0.1c0,0,0,0.1,0,0.1c0,0.1,0.1,0.1,0.1,0.2c0,0,0,0-0.1,0c0,0-0.1,0-0.1-0.1
	c0-0.1,0-0.2,0-0.3c0,0,0,0,0,0c0,0,0,0,0,0c0,0-0.1,0.1,0,0.2c0,0.1,0,0.1,0,0.2c0,0,0,0,0,0.1c0,0-0.1,0-0.1,0c0,0,0,0-0.1-0.1
	c0-0.1,0-0.2,0-0.3c0,0-0.1,0-0.1,0C3.2,2.6,3.1,2.7,3.1,2.8c0,0.1,0,0.1-0.1,0c0,0,0-0.3-0.1-0.3C2.8,2.7,3,3,3.1,3L3.1,3z
	 M2.7,2.8c-0.1,0-0.1,0.1,0,0.1c0,0,0.1,0,0.1,0c0,0,0.1-0.1,0.1-0.1s0,0-0.1,0C2.8,2.9,2.8,2.9,2.7,2.8C2.8,2.9,2.8,2.8,2.7,2.8
	C2.8,2.8,2.8,2.8,2.7,2.8C2.7,2.8,2.7,2.8,2.7,2.8L2.7,2.8z M6,3.9C6,3.9,6,3.9,6,3.9C5.9,3.9,5.9,3.9,6,3.9C5.9,3.9,5.9,3.9,6,3.9
	c0-0.1-0.1-0.1-0.1-0.1c0,0,0,0,0,0c0,0,0,0,0,0c0,0,0,0,0,0c0,0,0,0,0,0c0,0,0,0,0,0L5.8,4c0,0,0,0,0,0C5.9,4,6,4,6,3.9
	C6,4,6,3.9,6,3.9L6,3.9z M6.4,2.7C6.3,2.7,6.3,2.7,6.4,2.7c0-0.1,0-0.1,0-0.1c0,0-0.1-0.2-0.1-0.2c0,0,0,0,0,0c0,0,0,0,0,0
	c0,0,0,0.1,0,0.2C6.3,3,6.3,3.3,6.3,3.7c0,0,0,0,0,0.1c0,0-0.1,0.1-0.1,0.1C6.1,3.9,6.1,4,6,4C5.9,4,5.9,4.1,6,4.1
	c0.1,0,0.3,0,0.4-0.2c0,0,0.1-0.1,0.1-0.2C6.4,3.4,6.4,3,6.4,2.7L6.4,2.7z M1.3,3.4l0.4-0.2c0,0,0-0.1-0.1-0.1
	C1.5,3.2,1.3,3.4,1.3,3.4L1.3,3.4z M1.4,3.9C1.3,3.9,1.3,3.9,1.4,3.9c-0.1-0.1-0.1-0.2,0-0.2c0,0,0,0,0,0c0,0,0,0,0,0
	C1.2,3.8,1.2,3.9,1.2,4c0,0,0.1,0,0.1,0C1.4,4,1.4,3.9,1.4,3.9C1.4,3.8,1.4,3.8,1.4,3.9L1.4,3.9z M2.4,3.7c0.1-0.2,0-0.3,0-0.3
	c0,0,0,0,0,0c0,0,0,0,0,0c0,0,0,0,0,0c0,0,0,0,0,0c0.1,0.1,0.2,0,0.2,0c0,0,0,0,0.1,0c0.1,0,0.2,0,0.2,0c0-0.1,0-0.1,0-0.2
	c0,0-0.1,0-0.1,0c0,0,0,0,0,0l0,0.1c0,0,0,0,0,0c0,0,0,0,0,0c0,0,0,0,0,0c0-0.1-0.1-0.1-0.1,0c0,0-0.1,0-0.1,0c0-0.1,0-0.1-0.1-0.1
	L2.3,2.7c0,0,0.1,0,0.1,0c0-0.1-0.1-0.2-0.1-0.3c0,0,0,0,0,0c0,0,0,0,0,0c0,0,0,0,0,0c0,0,0,0,0,0c0,0,0,0,0,0c0,0,0,0,0,0h0
	c0,0,0,0,0,0c0,0-0.1,0-0.1,0.1l0.1,0.6c0,0,0,0.1-0.1,0.1c-0.1,0-0.1-0.1-0.2-0.1C2,3.1,1.9,3.2,1.9,3.3c0,0.1,0,0.1,0,0.2
	c0,0.1,0.1,0,0.2,0c0,0,0.1-0.1,0.1,0c0,0,0,0,0,0c0,0,0,0,0,0c0,0,0,0.1-0.2,0.2c-0.1,0-0.2,0.1-0.3,0c0-0.1,0-0.3-0.1-0.2
	C1.4,3.9,2.2,4,2.3,3.4c0,0,0,0,0,0c0,0,0,0,0,0c0,0.5-0.6,0.6-0.7,0.4c0,0,0-0.1,0-0.2c0,0,0-0.1,0-0.1c0,0-0.1,0-0.1,0.1
	c0,0.1,0,0.1,0,0.1C1.5,4.2,2.3,4,2.4,3.7L2.4,3.7z M2.1,3.3C2.1,3.3,2.1,3.3,2.1,3.3C2.1,3.3,2.1,3.3,2.1,3.3
	C2.1,3.3,2.1,3.3,2.1,3.3C2,3.3,2,3.3,2.1,3.3C2,3.3,2,3.3,2.1,3.3C2,3.3,2,3.3,2.1,3.3C2,3.3,2,3.3,2.1,3.3C2,3.3,2.1,3.2,2.1,3.3
	C2.1,3.2,2.1,3.2,2.1,3.3C2.1,3.2,2.1,3.3,2.1,3.3C2.1,3.3,2.1,3.3,2.1,3.3L2.1,3.3z M5.3,4L5.1,4L5.3,4z M4.5,2.9
	c0.1,0,0.2,0,0.2-0.1c0,0,0,0,0,0c0,0,0,0,0,0c0,0,0,0,0,0c0,0,0,0,0,0C4.6,2.8,4.6,2.8,4.5,2.9c0.1-0.1,0.1-0.1,0.1-0.1
	c0,0,0,0,0,0c0,0,0,0,0,0C4.6,2.8,4.6,2.8,4.5,2.9C4.6,2.8,4.6,2.8,4.5,2.9C4.6,2.8,4.6,2.8,4.5,2.9C4.6,2.8,4.6,2.8,4.5,2.9
	c0-0.1,0-0.1,0-0.1c0,0,0,0,0,0C4.5,2.8,4.5,2.8,4.5,2.9C4.5,2.8,4.5,2.9,4.5,2.9L4.5,2.9z M5.5,3.1c0,0,0-0.1,0-0.2c0,0,0,0,0,0
	c0,0,0,0,0,0c0,0,0-0.1,0-0.1c0,0,0,0,0,0c0,0-0.1,0-0.1,0.1c0,0,0,0,0,0.1c0,0,0,0,0,0c0,0,0,0,0,0c0,0-0.1,0-0.1,0c0,0,0,0,0,0.1
	C5.3,3,5.4,3.1,5.5,3.1L5.5,3.1z M5.1,3.8c0,0,0.1-0.1,0.1-0.2c0-0.1,0-0.2,0-0.3c0-0.1-0.1-0.6-0.1-0.7c0-0.1,0.1,0,0.1-0.1
	c0-0.1-0.1-0.2-0.1-0.2c0,0,0,0,0,0c0,0,0,0,0,0c0,0.1,0,0.2,0,0.2C5,3.1,5.1,3.4,5.1,3.8L5.1,3.8z M4.8,3.7C4.7,3.8,4.6,3.9,4.4,4
	c0,0,0,0.1,0.1,0.1C4.7,4,4.8,4,4.8,3.7c0.1,0.1,0.1,0,0.1-0.1c0-0.4,0-0.6-0.1-0.9c0,0,0-0.1,0-0.1c0,0,0,0,0,0
	c0,0-0.1-0.2-0.1-0.2c0,0,0,0,0,0c0,0,0,0,0,0c0,0,0,0.1,0,0.2c0.1,0.4,0.1,0.7,0.1,1C4.8,3.7,4.8,3.7,4.8,3.7L4.8,3.7z M5.1,3.6
	C5.1,3.6,5.1,3.6,5.1,3.6z M4.6,2.6c0,0.1,0,0.1,0,0.1C4.6,2.7,4.6,2.6,4.6,2.6c0.1,0,0-0.1,0-0.2c0,0,0,0,0,0c0,0-0.1,0,0,0
	C4.5,2.5,4.6,2.5,4.6,2.6L4.6,2.6z M5.6,3.1C5.6,3.1,5.6,3.1,5.6,3.1L5.3,3.3c0,0,0,0.1,0,0.1C5.4,3.4,5.6,3.2,5.6,3.1
	C5.6,3.2,5.6,3.1,5.6,3.1L5.6,3.1z M5.4,2.6c0.1,0.1,0.2,0.2,0.2,0.3c0,0.2,0,0.4,0,0.6c0,0.1,0,0.2-0.1,0.2c0,0,0,0-0.1,0
	c0,0-0.1-0.1-0.1-0.1c0,0-0.1,0-0.1,0C5.3,3.6,5.3,3.8,5.2,3.9c0,0-0.1,0-0.1,0C5,3.8,5,3.6,5.1,3.6l0,0C5,3.7,5,3.9,5,3.9
	C5.1,4,5.1,4,5.1,4c0.1,0,0.1,0,0.1,0C5.3,4,5.3,3.8,5.4,3.8c0-0.1,0.1,0,0.1,0c0,0,0,0,0.1,0.1c0.1,0,0.1,0.1,0.2,0
	c0,0,0.1-0.1,0.1-0.1c0-0.1,0-0.4,0-0.6l0.1,0.2c0,0.2,0,0.3,0,0.5c0,0,0.1-0.1,0.1-0.2V3.5c0.1,0.1,0.1,0.2,0.2,0.3
	c0,0,0-0.2,0-0.2C6.2,3.4,6.1,3.3,6.1,3.3C6.1,3.2,6,3,6,3C6,3,6,2.9,6,2.8c0,0,0-0.1,0-0.1c0,0,0,0,0,0c0,0-0.1-0.2-0.1-0.3
	c0,0,0,0-0.1,0c0,0,0,0.1,0,0.2c0,0.2,0.1,0.3,0.1,0.5L5.8,2.9l0,0c0,0,0-0.1,0-0.2c0,0,0,0,0,0c0,0,0,0,0,0c0,0,0,0,0,0L5.7,2.4
	c0,0,0,0,0,0c0,0,0,0,0,0c0,0,0,0,0,0.1c0,0.1,0,0.1,0,0.2l0,0c0,0,0,0,0,0c-0.1-0.1,0.1,0,0-0.1C5.5,2.5,5.5,2.4,5.4,2.4
	c0,0,0,0-0.1,0C5.4,2.5,5.4,2.5,5.4,2.6C5.4,2.6,5.4,2.6,5.4,2.6L5.4,2.6z M6.1,2.7c0,0,0,0.1,0,0.1C6.1,2.9,6.2,2.8,6.1,2.7
	c0.1,0,0-0.2,0-0.2c0,0,0,0,0,0c0,0-0.1,0,0,0.1C6,2.6,6.1,2.7,6.1,2.7L6.1,2.7z M4.1,4C4.1,4,4.1,4,4.1,4c0.1,0,0.1,0,0.2,0
	c0,0,0-0.1,0-0.1C4.2,3.9,4.2,3.9,4.1,4C4.1,3.9,4.1,3.9,4.1,4c0-0.1,0.1-0.1,0.1-0.2c0,0,0,0,0,0c0,0,0,0,0,0c0,0-0.1,0-0.1,0.1
	C4,3.8,4,3.9,4.1,4C4,3.9,4,3.9,4.1,4C4.1,3.9,4.1,3.9,4.1,4C4.1,3.9,4.1,4,4.1,4L4.1,4z M4.3,3.4L4.3,3.4C4.3,3.4,4.3,3.4,4.3,3.4
	C4.3,3.4,4.3,3.4,4.3,3.4L4.3,3.4C4.3,3.4,4.3,3.4,4.3,3.4L4.3,3.4l-0.5,0c0,0,0,0,0,0c0,0,0,0,0,0l0,0l0,0l0,0l0,0v0l0,0v0v0l0,0
	l0,0c0,0,0,0,0,0c0.1,0,0.3,0,0.3-0.2C4.2,3.1,4.1,3,4,3C3.9,3,3.8,3.1,3.8,3.2c0,0,0,0.1,0,0.1c-0.2,0-0.4,0.1-0.4,0.2h0l0,0l0,0h0
	c0,0,0,0,0,0h0c0,0,0,0,0,0c0,0,0,0,0,0c0-0.1-0.1-0.3-0.1-0.4c0,0,0,0,0,0c0,0,0,0,0,0h0c0,0,0,0,0,0c0,0,0,0,0,0c0,0,0,0,0,0
	c0,0,0,0,0,0.1c0,0,0,0.1,0.1,0.2c0,0.1,0.1,0.2,0,0.3C3.2,3.7,3.1,3.8,3,3.9c-0.1,0-0.1,0-0.1,0l0,0c0,0,0-0.1,0-0.1v0l0,0
	C2.9,3.7,3,3.7,3.1,3.5c0-0.1,0-0.1,0-0.2c0,0,0-0.1-0.1-0.1l0,0c0,0,0.1,0,0.1,0c0,0,0-0.1-0.1-0.1C3,3,3,3,3,3.1c0,0,0,0.1,0,0.1
	c0,0,0.1,0.1,0.1,0.1v0c0,0,0,0.1,0,0.1c0,0-0.2,0.2-0.2,0.2c0,0,0,0,0,0l0,0c0,0,0,0,0,0c0,0,0,0,0,0h0c0,0,0,0,0,0v0c0,0,0,0,0,0
	c0,0,0,0,0,0c0,0,0-0.1,0-0.1v0l0,0v0h0c-0.1,0-0.1,0.2-0.1,0.2C2.5,3.8,2.3,3.9,2.2,4C2.2,4.1,2.6,3.9,2.7,3.9c0,0,0,0,0,0
	c0,0,0,0,0,0.1C2.8,4,2.9,4.1,3,4C3.1,4,3.2,3.9,3.3,3.8c0,0,0,0,0.1,0C3.4,3.9,3.6,4,3.9,4c0.1-0.1,0-0.1,0-0.1c0,0-0.1,0-0.1-0.1
	c0,0,0-0.1,0.1-0.1c0.2,0,0.3,0,0.5-0.1C4.3,3.6,4.3,3.5,4.3,3.4C4.3,3.5,4.3,3.5,4.3,3.4L4.3,3.4z M3.9,3.2
	C3.9,3.2,3.9,3.2,3.9,3.2C3.9,3.2,3.9,3.2,3.9,3.2L3.9,3.2C3.9,3.2,3.9,3.2,3.9,3.2C3.9,3.1,3.9,3.1,3.9,3.2C4,3.1,4,3.1,3.9,3.2
	C4,3.2,4,3.2,3.9,3.2C4,3.2,4,3.2,3.9,3.2C4,3.2,4,3.2,3.9,3.2L3.9,3.2C4,3.2,4,3.2,3.9,3.2C4,3.2,4,3.2,3.9,3.2
	C4,3.2,4,3.2,3.9,3.2C4,3.2,4,3.2,3.9,3.2C3.9,3.2,3.9,3.2,3.9,3.2C3.9,3.2,3.9,3.2,3.9,3.2L3.9,3.2z M3.7,3.6c-0.1,0-0.1,0-0.1,0.1
	c0,0,0,0.1,0,0.1c0,0,0,0,0,0l0,0l0,0c0,0,0,0,0,0l0,0c0,0,0,0,0,0c0,0,0,0,0,0c0,0,0,0,0,0c0,0,0,0,0,0c0,0-0.1-0.1-0.1-0.2
	c0,0,0,0,0.1,0c0,0,0,0,0,0h0C3.5,3.5,3.6,3.5,3.7,3.6C3.8,3.6,3.8,3.6,3.7,3.6L3.7,3.6z M2.6,3.5C2.6,3.5,2.6,3.5,2.6,3.5
	c0.1,0.1,0.1,0.2,0.1,0.2c0,0,0,0,0-0.1C2.7,3.5,2.7,3.4,2.6,3.5C2.6,3.4,2.6,3.4,2.6,3.5C2.6,3.4,2.6,3.4,2.6,3.5L2.6,3.5z
	 M3.6,3.2c0.1,0,0.2,0,0.2-0.1c0,0,0,0,0,0c0,0,0,0,0,0c0,0,0,0,0,0c0,0,0,0,0,0C3.7,3.1,3.6,3.1,3.6,3.2c0.1-0.1,0.1-0.1,0.1-0.1
	c0,0,0,0,0,0c0,0,0,0,0,0C3.6,3.1,3.6,3.1,3.6,3.2C3.6,3.1,3.6,3.1,3.6,3.2C3.6,3.1,3.6,3.1,3.6,3.2C3.6,3.1,3.6,3.1,3.6,3.2
	c0-0.1,0-0.1,0-0.1c0,0,0,0,0,0C3.5,3.1,3.5,3.1,3.6,3.2C3.5,3.1,3.5,3.2,3.6,3.2L3.6,3.2z M4,2.6C4.1,2.7,4.2,2.8,4.3,3
	c0,0.1,0,0.2,0,0.3c0,0.2,0,0.4,0,0.6c0,0,0.1-0.1,0.1-0.1c0-0.1,0-0.4,0-0.4c0,0,0-0.1,0-0.1c0.1,0.2,0.2,0.3,0.3,0.5
	c0,0,0-0.2,0-0.2C4.7,3.3,4.6,3.1,4.6,3.1c0,0-0.1-0.1-0.1-0.2c0-0.1,0-0.2,0-0.2c0-0.1,0,0,0,0c0-0.1-0.1-0.2-0.2-0.3
	c0,0,0,0-0.1,0c0,0,0,0.1,0,0.1c0,0,0,0,0,0L4.1,2.4c0,0,0,0-0.1,0c0,0,0,0,0,0C4,2.4,4,2.5,4,2.6C4,2.5,4,2.6,4,2.6L4,2.6z
	 M4.3,2.6C4.3,2.6,4.3,2.6,4.3,2.6C4.3,2.6,4.3,2.7,4.3,2.6C4.3,2.7,4.2,2.6,4.3,2.6C4.2,2.6,4.2,2.6,4.3,2.6L4.3,2.6z"/>
<path class="st2" d="M5.1,5.4C5.1,5.4,5.1,5.4,5.1,5.4C5,5.4,5,5.5,5.1,5.5c-0.9,0-2.2,0-2.5,0c-0.2,0-0.7,0-0.7,0
	C2,5.6,2.1,5.6,2.4,5.6l2.7,0c0,0.1,0,0.1,0,0.2c0,0,0,0,0,0c0,0,0,0,0,0c0,0,0,0,0,0c0,0,0,0,0.1,0c0.1,0,0.4,0,0.4,0c0,0,0,0,0,0
	c0,0,0,0,0.1,0c0.1,0,0.1,0,0.1-0.1c0,0,0-0.2-0.2-0.2c0,0-0.1,0-0.1,0c-0.1,0-0.2,0-0.3,0C5.2,5.5,5.2,5.4,5.1,5.4
	C5.2,5.4,5.2,5.4,5.1,5.4L5.1,5.4C5.1,5.4,5.1,5.4,5.1,5.4C5.1,5.4,5.1,5.4,5.1,5.4C5.1,5.4,5.1,5.4,5.1,5.4
	C5.1,5.4,5.1,5.4,5.1,5.4C5.1,5.4,5.1,5.4,5.1,5.4C5.1,5.4,5.1,5.4,5.1,5.4L5.1,5.4C5.1,5.4,5.1,5.4,5.1,5.4
	C5.1,5.4,5.1,5.4,5.1,5.4L5.1,5.4L5.1,5.4z M5.2,5.6C5.2,5.6,5.2,5.6,5.2,5.6c0.1,0,0.3,0,0.4,0c0,0,0,0,0,0.1c0,0,0,0,0,0
	c0,0,0,0,0,0c0,0,0,0,0,0l-0.1,0c0,0,0,0,0,0c0,0-0.1,0-0.1,0c0,0,0,0,0,0c0,0,0,0,0,0c0,0,0,0,0,0c0,0,0,0,0,0c0,0,0,0,0,0
	C5.3,5.7,5.2,5.7,5.2,5.6C5.2,5.7,5.2,5.6,5.2,5.6L5.2,5.6z"/>
</svg>
